PathFileType	4	(X/Y/Z)	E:\Marcel_BSc\Ayumi_22_01_2025\22-01-2025\sumo_dl_2.trc
DataRate	CameraRate	NumFrames	NumMarkers	Units	OrigDataRate	OrigDataStartFrame	OrigNumFrames
200.0	200.0	6	47	mm	200.0	1148	2294	
Frame#	Time	LBHD			FHD			RBHD			RBAR			LBAR			RSACR			LSACR			USACR			C7			CLAV			T10			RSHO			LSHO			LTHI1			LTHI3			LTHI2			LTIB1			LTIB2			LTIB3			LMMAL			LLMAL			LHEE			LMT1			LMT5			LMT3			RTHI1			RTHI2			RTHI3			RTIB1			RTIB3			RTIB2			RLMAL			RMMAL			RHEE			RMT5			RMT1			RMT3			LDUPA			LMUPA			LUUPA			LRAD			RUL			RRAD			RUFIN			RMUPA			RDUPA			RUUPA			
		X1	Y1	Z1	X2	Y2	Z2	X3	Y3	Z3	X4	Y4	Z4	X5	Y5	Z5	X6	Y6	Z6	X7	Y7	Z7	X8	Y8	Z8	X9	Y9	Z9	X10	Y10	Z10	X11	Y11	Z11	X12	Y12	Z12	X13	Y13	Z13	X14	Y14	Z14	X15	Y15	Z15	X16	Y16	Z16	X17	Y17	Z17	X18	Y18	Z18	X19	Y19	Z19	X20	Y20	Z20	X21	Y21	Z21	X22	Y22	Z22	X23	Y23	Z23	X24	Y24	Z24	X25	Y25	Z25	X26	Y26	Z26	X27	Y27	Z27	X28	Y28	Z28	X29	Y29	Z29	X30	Y30	Z30	X31	Y31	Z31	X32	Y32	Z32	X33	Y33	Z33	X34	Y34	Z34	X35	Y35	Z35	X36	Y36	Z36	X37	Y37	Z37	X38	Y38	Z38	X39	Y39	Z39	X40	Y40	Z40	X41	Y41	Z41	X42	Y42	Z42	X43	Y43	Z43	X44	Y44	Z44	X45	Y45	Z45	X46	Y46	Z46	X47	Y47	Z47	
1148	5.73	192.38272	1486.2798	-887.02802	175.12529	1503.9457	-946.64429	215.23407	1477.3558	-1018.963	254.6812	643.7088	-2056.8213	276.64578	592.38818	161.89693	468.41	857.6073	-999.07239	470.82288	859.33905	-926.2865	465.73801	871.99493	-961.5069	369.17545	1298.5728	-951.80127	239.06006	1208.2858	-952.7511	448.74838	1039.8911	-966.11603	247.05687	1225.377	-1116.9204	250.15193	1236.911	-790.62048	397.17395	570.93604	-713.48999	397.27539	505.71643	-705.78479	359.71854	526.20496	-679.59729	356.00549	238.30273	-551.54102	393.85583	215.57428	-576.72949	361.80911	173.32187	-537.7392	293.50531	64.060326	-548.73138	350.68872	68.700157	-504.46552	356.32629	29.09104	-552.3642	206.89052	45.891815	-423.88699	273.69409	26.000479	-380.76682	227.52879	40.603271	-396.79633	401.44879	564.54596	-1198.0234	367.25616	518.93115	-1231.1678	408.98196	500.38748	-1207.8486	377.69864	266.94702	-1345.3361	381.38907	204.1687	-1359.4579	414.12292	243.47884	-1320.1672	360.88733	67.601044	-1406.8557	289.48334	68.205849	-1378.1107	357.98141	30.061665	-1356.6592	289.56116	26.585928	-1535.1132	227.99423	38.509125	-1507.3748	251.5694	35.03297	-1527.8704	375.40717	1006.9384	-727.14764	325.9816	1013.9707	-727.62036	333.9176	1075.0985	-729.96802	289.9227	700.39008	-665.54974	227.2892	704.76923	-1237.2283	225.72678	697.69501	-1174.5604	218.30588	621.21436	-1175.3259	286.41342	1104.6196	-1188.55	279.87991	1044.3613	-1202.583	335.49713	1099.6106	-1191.7302
1149	5.735	193.86436	1486.3627	-887.49158	176.27721	1504.1661	-947.06305	216.77994	1477.3093	-1019.4732	254.89851	644.37567	-2057.1775	276.57895	593.5766	161.91534	467.30817	857.11316	-998.91467	469.71313	858.76996	-926.12372	464.62344	871.50037	-961.3512	371.6777	1298.3412	-951.99078	240.78087	1209.4806	-952.76257	448.71786	1039.2185	-965.92853	249.32898	1226.6044	-1117.1665	252.13176	1238.2195	-790.68372	396.89285	571.04309	-714.10657	396.927	505.82629	-706.43384	359.58087	526.28638	-680.02917	355.09521	237.41393	-552.32465	393.99152	215.63606	-577.00177	362.00507	173.41994	-537.91864	293.57288	64.102158	-548.67242	350.80325	68.677727	-504.40353	356.36612	29.092171	-552.33496	206.95061	45.918423	-423.89725	273.72162	25.995943	-380.75327	227.5675	40.625198	-396.81885	400.80252	564.63043	-1197.7616	366.71524	518.91467	-1230.8795	408.3288	500.49829	-1207.4514	377.63181	266.94186	-1344.8861	381.31311	204.2585	-1359.1132	413.96317	243.41887	-1319.6355	360.86411	67.619484	-1406.8059	289.41888	68.142349	-1378.076	357.63885	29.627302	-1357.1698	289.54337	26.605986	-1535.085	228.03764	38.462597	-1507.3444	251.5724	35.075779	-1527.8284	376.60907	1007.3925	-727.12616	327.25632	1014.6531	-727.5719	335.38351	1075.7399	-729.86743	289.89825	701.03326	-665.91071	227.69849	705.89069	-1237.2515	225.99834	698.66705	-1175.2411	218.15417	622.39062	-1175.3115	288.55222	1105.3514	-1188.6742	281.67087	1045.1733	-1202.5851	337.52176	1100.1034	-1191.4626
1150	5.74	195.22482	1486.4679	-888.0061	177.67111	1503.8131	-947.7218	218.38091	1477.1917	-1019.982	258.4361	644.44623	-2058.1311	276.40677	594.7099	161.93217	466.31857	856.63019	-998.7821	468.59036	858.28827	-926.01501	463.57083	871.00751	-961.19916	373.901	1298.6741	-951.93066	242.44722	1210.6395	-952.76208	448.84308	1038.4489	-965.71875	251.52928	1227.7262	-1117.4447	253.85034	1239.3984	-790.69275	396.52219	571.32373	-714.65759	396.92938	505.35046	-707.01215	359.42535	526.43854	-680.35638	355.18445	237.4922	-552.53931	394.15259	215.63631	-577.2428	362.11447	173.48517	-538.09283	293.61783	64.133705	-548.64453	350.88123	68.66571	-504.38333	356.39587	29.104147	-552.30231	207.01308	45.941254	-423.90582	273.72723	25.994307	-380.73047	227.59572	40.63467	-396.82166	400.07458	564.77234	-1197.5369	366.08829	518.98279	-1230.6248	407.67261	500.58441	-1207.1301	377.5141	266.8782	-1344.5153	381.24496	204.23907	-1358.7542	413.81238	243.42992	-1319.1681	360.81726	67.645454	-1406.756	289.38922	68.031395	-1377.983	357.93655	30.03574	-1356.6288	289.55078	26.619711	-1535.0479	228.1178	38.343052	-1507.3174	251.55759	35.126144	-1527.7877	377.80273	1007.8076	-727.14557	328.43295	1015.2213	-727.54736	336.8699	1076.3081	-729.79285	290.29935	701.77216	-665.7605	228.00645	706.89502	-1237.2917	226.11137	699.78412	-1174.7513	217.94656	623.43433	-1175.3619	290.48425	1106.2035	-1188.7074	283.38419	1045.9611	-1202.5945	339.58499	1100.4847	-1191.2126
1151	5.745	196.55081	1486.5028	-888.62183	179.05185	1503.3988	-948.4101	219.94603	1477.0475	-1020.5079	250.09555	646.78143	-2057.5132	276.22415	595.8042	161.92511	465.35345	856.31134	-998.60004	467.59485	857.93158	-925.8349	462.54773	870.54901	-961.06537	376.20126	1298.7549	-951.99438	244.09673	1211.7086	-952.72601	448.83835	1037.8741	-965.56592	253.68912	1228.6268	-1117.6995	255.69931	1240.5947	-790.6861	396.17847	571.7569	-715.00598	396.35974	506.0351	-707.37012	359.21017	526.70483	-680.56024	355.22754	237.61731	-552.71008	394.2034	215.71545	-577.41101	362.20807	173.58635	-538.19006	293.70203	64.158318	-548.61035	350.96414	68.632645	-504.37885	356.4548	29.093983	-552.2547	207.04344	45.938332	-423.90161	273.76331	25.977066	-380.72009	227.59825	40.628681	-396.81396	399.45135	564.87244	-1197.417	365.41589	519.02185	-1230.4127	406.98822	501.06024	-1207.0282	377.44312	266.95255	-1344.2242	381.13235	204.30144	-1358.4246	413.64801	243.45474	-1318.7415	360.7887	67.676773	-1406.6947	289.37674	68.046509	-1377.8882	357.63058	29.635431	-1357.1306	289.52637	26.637449	-1535.0111	228.17465	38.320751	-1507.3029	251.53369	35.137447	-1527.7446	379.12057	1008.1228	-727.18152	329.74033	1015.7554	-727.47723	338.08102	1076.9886	-729.82361	290.66309	702.22778	-666.10321	228.27039	707.8064	-1237.3632	226.22183	700.60004	-1175.3248	217.70613	624.34418	-1175.4681	292.45734	1106.8585	-1188.7793	285.05374	1046.6986	-1202.6033	341.42624	1101.0555	-1190.9031
1152	5.75	197.91219	1486.5699	-889.15607	180.15785	1503.5697	-948.87323	221.53098	1476.8833	-1021.0376	253.98296	646.43213	-2056.6741	275.99738	596.8158	161.91489	464.50754	855.92706	-998.44666	466.71292	857.47565	-925.76642	461.62036	870.18494	-960.89722	378.44669	1299.1876	-951.92426	245.64484	1212.7064	-952.64246	448.89828	1037.2544	-965.43335	255.59569	1229.6229	-1117.9097	257.46799	1241.722	-790.61127	395.80499	572.10028	-715.17108	395.93896	506.25647	-707.58008	358.89563	526.9906	-680.57556	355.20978	237.70929	-552.78448	394.24982	215.76355	-577.48456	362.32812	173.74211	-538.20911	293.76318	64.226257	-548.59033	351.03275	68.611717	-504.35745	356.47565	29.097351	-552.25049	207.08772	45.918392	-423.89185	273.51413	25.652895	-380.65332	227.35638	40.969524	-396.12955	398.76593	565.09729	-1197.2727	364.80917	519.0415	-1230.2826	406.49457	500.77881	-1206.8398	377.29095	267.03406	-1343.9735	380.9758	204.36806	-1358.1851	413.43381	243.55876	-1318.4124	360.70349	67.701736	-1406.6388	289.25314	68.024353	-1377.8781	357.93262	30.064314	-1356.5656	289.49136	26.677759	-1534.9806	228.35677	38.104786	-1507.308	251.55049	35.179558	-1527.7271	380.34796	1008.2885	-727.33582	331.11127	1016.2338	-727.38281	339.63657	1077.4191	-729.75189	291.00494	702.849	-665.94171	228.43726	708.66193	-1237.4187	226.34741	701.56555	-1174.8224	217.52629	625.258	-1175.4857	294.32205	1107.5028	-1188.8506	286.7157	1047.3213	-1202.6372	343.30777	1101.3693	-1190.6545
1153	5.755	199.28783	1486.5391	-889.66235	181.44368	1503.2803	-949.54047	223.06136	1476.6062	-1021.641	250.24605	647.39984	-2056.9705	275.75479	597.79218	161.9343	463.7406	855.55743	-998.36108	466.00009	857.0849	-925.63452	460.78391	869.85815	-960.81769	380.57166	1299.2157	-951.95825	247.15361	1213.6115	-952.58252	449.0101	1036.6492	-965.32184	257.51218	1230.3453	-1118.1235	259.22388	1242.6893	-790.57849	395.51056	572.28461	-715.20557	395.48773	506.65372	-707.63495	358.57098	527.36615	-680.4743	355.17572	237.80566	-552.70648	394.16724	215.89087	-577.46222	362.29706	173.80017	-538.18713	293.80914	64.305862	-548.49744	351.09555	68.612488	-504.32187	356.51437	29.087988	-552.22821	207.127	45.899036	-423.87396	273.51163	25.648731	-380.60812	227.37474	40.961975	-396.1239	398.51395	564.88892	-1197.3917	364.23175	519.20715	-1230.2305	406.01898	501.23007	-1206.8768	377.13263	267.18237	-1343.7769	380.85068	204.52475	-1358.0322	413.30029	243.65396	-1318.2788	360.64914	67.713707	-1406.5591	289.16211	68.029655	-1377.7764	357.99048	30.116007	-1356.5104	289.45605	26.694933	-1534.9531	228.35725	38.061047	-1507.275	251.53104	35.207668	-1527.7089	381.75345	1008.5441	-727.5094	332.42099	1016.6201	-727.40869	341.63721	1077.5421	-729.59186	292.00406	703.09888	-666.39075	228.60962	709.45972	-1237.4081	226.43163	702.2807	-1175.3617	217.29385	625.99933	-1175.5896	296.05545	1108.0579	-1188.8658	288.26105	1047.9467	-1202.6831	345.04803	1101.7172	-1190.4261
